<mxfile host="Electron" modified="2024-05-13T12:25:58.651Z" agent="Mozilla/5.0 (Macintosh; Intel Mac OS X 10_15_7) AppleWebKit/537.36 (KHTML, like Gecko) draw.io/24.2.5 Chrome/120.0.6099.109 Electron/28.1.0 Safari/537.36" etag="fLB7834mGcqjyjxJFWEs" version="24.2.5" type="device">
  <diagram id="AAR1mRfeiqQyKMKh30_z" name="Page-1">
    <mxGraphModel dx="1152" dy="688" grid="1" gridSize="10" guides="1" tooltips="1" connect="1" arrows="1" fold="1" page="1" pageScale="1" pageWidth="827" pageHeight="1169" math="0" shadow="0">
      <root>
        <mxCell id="0" />
        <mxCell id="1" parent="0" />
        <mxCell id="1gCc8UXQbu_2HdWJga4U-45" value="&lt;font style=&quot;font-size: 27px;&quot;&gt;&lt;b style=&quot;font-size: 27px;&quot;&gt;&lt;u style=&quot;font-size: 27px;&quot;&gt;The backend&lt;/u&gt;&lt;/b&gt;&lt;/font&gt;" style="rounded=0;whiteSpace=wrap;html=1;fillColor=#f5f5f5;fontColor=#333333;strokeColor=#666666;verticalAlign=bottom;fontSize=27;" vertex="1" parent="1">
          <mxGeometry x="2510" y="210" width="976" height="1470" as="geometry" />
        </mxCell>
        <mxCell id="1gCc8UXQbu_2HdWJga4U-1" value="Backend adapters" style="rounded=0;whiteSpace=wrap;html=1;fontStyle=1;verticalAlign=top;fillColor=#f8cecc;strokeColor=#b85450;align=left;labelPosition=center;verticalLabelPosition=middle;" vertex="1" parent="1">
          <mxGeometry x="2596" y="1020" width="719" height="380" as="geometry" />
        </mxCell>
        <mxCell id="1gCc8UXQbu_2HdWJga4U-34" value="in-memory-adapter" style="rounded=1;whiteSpace=wrap;html=1;strokeColor=#36393d;fillColor=#eeeeee;" vertex="1" parent="1">
          <mxGeometry x="2666" y="1070" width="590" height="310" as="geometry" />
        </mxCell>
        <mxCell id="1gCc8UXQbu_2HdWJga4U-2" value="&lt;b&gt;Application&lt;/b&gt;" style="rounded=0;whiteSpace=wrap;html=1;fillColor=#fff2cc;strokeColor=#d6b656;verticalAlign=top;align=left;" vertex="1" parent="1">
          <mxGeometry x="2596" y="720" width="719" height="220" as="geometry" />
        </mxCell>
        <mxCell id="1gCc8UXQbu_2HdWJga4U-33" value="vocabulary" style="rounded=1;whiteSpace=wrap;html=1;fillColor=#f5f5f5;strokeColor=#666666;fontColor=#333333;" vertex="1" parent="1">
          <mxGeometry x="2676" y="729.8299999999999" width="610" height="190.17" as="geometry" />
        </mxCell>
        <mxCell id="dkDEsUe8K2UwR5xSYzfA-41" value="Backend adapters" style="rounded=0;whiteSpace=wrap;html=1;fontStyle=1;verticalAlign=top;fillColor=#f8cecc;strokeColor=#b85450;align=center;labelPosition=center;verticalLabelPosition=bottom;" parent="1" vertex="1">
          <mxGeometry x="841" y="710" width="719" height="180" as="geometry" />
        </mxCell>
        <mxCell id="dkDEsUe8K2UwR5xSYzfA-44" value="&lt;b&gt;Application&lt;/b&gt;" style="rounded=0;whiteSpace=wrap;html=1;fillColor=#fff2cc;strokeColor=#d6b656;verticalAlign=top;align=left;" parent="1" vertex="1">
          <mxGeometry x="841" y="275" width="719" height="405" as="geometry" />
        </mxCell>
        <mxCell id="dkDEsUe8K2UwR5xSYzfA-39" value="&lt;b&gt;domain-layer&lt;/b&gt;" style="rounded=0;whiteSpace=wrap;html=1;fillColor=#d5e8d4;strokeColor=#82b366;verticalAlign=top;" parent="1" vertex="1">
          <mxGeometry x="891" y="540" width="229" height="130" as="geometry" />
        </mxCell>
        <mxCell id="dkDEsUe8K2UwR5xSYzfA-38" value="&lt;b&gt;application-layer&lt;/b&gt;" style="rounded=0;whiteSpace=wrap;html=1;fillColor=#dae8fc;strokeColor=#6c8ebf;align=left;verticalAlign=top;" parent="1" vertex="1">
          <mxGeometry x="891" y="300" width="639" height="230" as="geometry" />
        </mxCell>
        <mxCell id="dkDEsUe8K2UwR5xSYzfA-35" value="" style="group;align=center;verticalAlign=middle;" parent="1" vertex="1" connectable="0">
          <mxGeometry x="841" y="120" width="719" height="140" as="geometry" />
        </mxCell>
        <mxCell id="dkDEsUe8K2UwR5xSYzfA-36" value="Frontend adapters" style="rounded=0;whiteSpace=wrap;html=1;fontStyle=1;verticalAlign=top;fillColor=#e1d5e7;strokeColor=#9673a6;align=center;" parent="dkDEsUe8K2UwR5xSYzfA-35" vertex="1">
          <mxGeometry width="719" height="140" as="geometry" />
        </mxCell>
        <mxCell id="dkDEsUe8K2UwR5xSYzfA-6" value="rest-adapter" style="rounded=1;whiteSpace=wrap;html=1;fillColor=#f5f5f5;strokeColor=#666666;fontColor=#333333;" parent="dkDEsUe8K2UwR5xSYzfA-35" vertex="1">
          <mxGeometry x="295.8806936416185" y="40" width="166.242774566474" height="60" as="geometry" />
        </mxCell>
        <mxCell id="dkDEsUe8K2UwR5xSYzfA-8" style="edgeStyle=orthogonalEdgeStyle;rounded=0;orthogonalLoop=1;jettySize=auto;html=1;entryX=0.5;entryY=0;entryDx=0;entryDy=0;" parent="1" source="dkDEsUe8K2UwR5xSYzfA-6" target="dkDEsUe8K2UwR5xSYzfA-7" edge="1">
          <mxGeometry relative="1" as="geometry">
            <Array as="points" />
          </mxGeometry>
        </mxCell>
        <mxCell id="dkDEsUe8K2UwR5xSYzfA-7" value="application-api" style="rounded=1;whiteSpace=wrap;html=1;fillColor=#f5f5f5;strokeColor=#666666;fontColor=#333333;dashed=1;strokeWidth=2;" parent="1" vertex="1">
          <mxGeometry x="970" y="335" width="500" height="60" as="geometry" />
        </mxCell>
        <mxCell id="dkDEsUe8K2UwR5xSYzfA-16" style="edgeStyle=orthogonalEdgeStyle;rounded=0;orthogonalLoop=1;jettySize=auto;html=1;endArrow=block;endFill=0;exitX=0;exitY=0.5;exitDx=0;exitDy=0;entryX=0.5;entryY=1;entryDx=0;entryDy=0;" parent="1" source="dkDEsUe8K2UwR5xSYzfA-9" target="dkDEsUe8K2UwR5xSYzfA-15" edge="1">
          <mxGeometry relative="1" as="geometry">
            <mxPoint x="961" y="640" as="targetPoint" />
            <Array as="points">
              <mxPoint x="961" y="810" />
            </Array>
          </mxGeometry>
        </mxCell>
        <mxCell id="dkDEsUe8K2UwR5xSYzfA-10" value="vocabulary" style="rounded=1;whiteSpace=wrap;html=1;fillColor=#f5f5f5;strokeColor=#666666;fontColor=#333333;" parent="1" vertex="1">
          <mxGeometry x="1640" y="409.83000000000004" width="120" height="60" as="geometry" />
        </mxCell>
        <mxCell id="dkDEsUe8K2UwR5xSYzfA-25" style="edgeStyle=orthogonalEdgeStyle;rounded=0;orthogonalLoop=1;jettySize=auto;html=1;strokeColor=#000000;strokeWidth=1;endArrow=block;endFill=0;entryX=0.377;entryY=0.983;entryDx=0;entryDy=0;entryPerimeter=0;" parent="1" source="dkDEsUe8K2UwR5xSYzfA-12" target="dkDEsUe8K2UwR5xSYzfA-7" edge="1">
          <mxGeometry relative="1" as="geometry">
            <mxPoint x="1229" y="400" as="targetPoint" />
            <Array as="points">
              <mxPoint x="1159" y="410" />
            </Array>
          </mxGeometry>
        </mxCell>
        <mxCell id="dkDEsUe8K2UwR5xSYzfA-26" style="edgeStyle=orthogonalEdgeStyle;rounded=0;orthogonalLoop=1;jettySize=auto;html=1;strokeColor=#000000;strokeWidth=1;" parent="1" source="dkDEsUe8K2UwR5xSYzfA-12" target="dkDEsUe8K2UwR5xSYzfA-15" edge="1">
          <mxGeometry relative="1" as="geometry" />
        </mxCell>
        <mxCell id="dkDEsUe8K2UwR5xSYzfA-12" value="usecases" style="rounded=1;whiteSpace=wrap;html=1;fillColor=#f5f5f5;strokeColor=#666666;fontColor=#CC0000;" parent="1" vertex="1">
          <mxGeometry x="1100" y="430" width="120" height="60" as="geometry" />
        </mxCell>
        <mxCell id="dkDEsUe8K2UwR5xSYzfA-17" style="edgeStyle=orthogonalEdgeStyle;rounded=0;orthogonalLoop=1;jettySize=auto;html=1;endArrow=block;endFill=0;entryX=0.741;entryY=0.983;entryDx=0;entryDy=0;entryPerimeter=0;" parent="1" source="dkDEsUe8K2UwR5xSYzfA-13" target="dkDEsUe8K2UwR5xSYzfA-7" edge="1">
          <mxGeometry relative="1" as="geometry">
            <mxPoint x="1229" y="400" as="targetPoint" />
            <Array as="points">
              <mxPoint x="1341" y="410" />
            </Array>
          </mxGeometry>
        </mxCell>
        <mxCell id="dkDEsUe8K2UwR5xSYzfA-13" value="queries" style="rounded=1;whiteSpace=wrap;html=1;fillColor=#f5f5f5;strokeColor=#666666;fontColor=#333333;" parent="1" vertex="1">
          <mxGeometry x="1270" y="430" width="120" height="60" as="geometry" />
        </mxCell>
        <mxCell id="dkDEsUe8K2UwR5xSYzfA-15" value="domain" style="rounded=1;whiteSpace=wrap;html=1;fillColor=#f5f5f5;strokeColor=#666666;fontColor=#FF0000;" parent="1" vertex="1">
          <mxGeometry x="901" y="565.0033333333333" width="120" height="80" as="geometry" />
        </mxCell>
        <mxCell id="dkDEsUe8K2UwR5xSYzfA-24" value="test-doubles" style="rounded=1;whiteSpace=wrap;html=1;fillColor=#00FF00;strokeColor=#666666;fontColor=#333333;" parent="1" vertex="1">
          <mxGeometry x="1640" y="520" width="120" height="60" as="geometry" />
        </mxCell>
        <mxCell id="dkDEsUe8K2UwR5xSYzfA-30" value="main" style="rounded=1;whiteSpace=wrap;html=1;fillColor=#f5f5f5;strokeColor=#666666;fontColor=#333333;" parent="1" vertex="1">
          <mxGeometry x="1650" y="220" width="120" height="60" as="geometry" />
        </mxCell>
        <mxCell id="dkDEsUe8K2UwR5xSYzfA-31" value="used by everyone. Contains immutable core concepts that can be used by everyone but should not exposed to outside world or contain business logic" style="shape=callout;whiteSpace=wrap;html=1;perimeter=calloutPerimeter;fillColor=#ffff88;strokeColor=#36393d;align=left;" parent="1" vertex="1">
          <mxGeometry x="1650" y="305" width="200" height="105" as="geometry" />
        </mxCell>
        <mxCell id="dkDEsUe8K2UwR5xSYzfA-32" value="uses everything in order to wire it together" style="shape=callout;whiteSpace=wrap;html=1;perimeter=calloutPerimeter;fillColor=#ffff88;strokeColor=#36393d;align=left;" parent="1" vertex="1">
          <mxGeometry x="1680" y="140" width="120" height="80" as="geometry" />
        </mxCell>
        <mxCell id="dkDEsUe8K2UwR5xSYzfA-33" value="used by all tests" style="shape=callout;whiteSpace=wrap;html=1;perimeter=calloutPerimeter;fillColor=#ffff88;strokeColor=#36393d;align=left;size=19;position=0.55;" parent="1" vertex="1">
          <mxGeometry x="1705" y="480" width="90" height="50" as="geometry" />
        </mxCell>
        <mxCell id="dkDEsUe8K2UwR5xSYzfA-45" style="edgeStyle=orthogonalEdgeStyle;rounded=0;orthogonalLoop=1;jettySize=auto;html=1;entryX=0;entryY=0.5;entryDx=0;entryDy=0;strokeWidth=3;" parent="1" target="dkDEsUe8K2UwR5xSYzfA-10" edge="1">
          <mxGeometry relative="1" as="geometry">
            <mxPoint x="1560" y="440" as="sourcePoint" />
            <mxPoint x="720" y="460" as="targetPoint" />
            <Array as="points">
              <mxPoint x="1580" y="440" />
              <mxPoint x="1580" y="440" />
            </Array>
          </mxGeometry>
        </mxCell>
        <mxCell id="dkDEsUe8K2UwR5xSYzfA-46" style="edgeStyle=orthogonalEdgeStyle;rounded=0;orthogonalLoop=1;jettySize=auto;html=1;strokeWidth=3;exitX=0;exitY=0.5;exitDx=0;exitDy=0;entryX=1;entryY=0.25;entryDx=0;entryDy=0;" parent="1" source="dkDEsUe8K2UwR5xSYzfA-30" edge="1">
          <mxGeometry relative="1" as="geometry">
            <mxPoint x="720" y="230" as="sourcePoint" />
            <mxPoint x="1560" y="246.25" as="targetPoint" />
            <Array as="points">
              <mxPoint x="1650" y="246" />
            </Array>
          </mxGeometry>
        </mxCell>
        <mxCell id="dkDEsUe8K2UwR5xSYzfA-47" style="edgeStyle=orthogonalEdgeStyle;rounded=0;orthogonalLoop=1;jettySize=auto;html=1;entryX=0;entryY=0.5;entryDx=0;entryDy=0;strokeWidth=3;exitX=1;exitY=1;exitDx=0;exitDy=0;fontColor=#00CC00;strokeColor=#00CC00;" parent="1" target="dkDEsUe8K2UwR5xSYzfA-24" edge="1">
          <mxGeometry relative="1" as="geometry">
            <mxPoint x="1560" y="550" as="sourcePoint" />
            <mxPoint x="1650" y="449.8299999999999" as="targetPoint" />
            <Array as="points">
              <mxPoint x="1640" y="550" />
            </Array>
          </mxGeometry>
        </mxCell>
        <mxCell id="dkDEsUe8K2UwR5xSYzfA-9" value="in-memory-adapter" style="rounded=1;whiteSpace=wrap;html=1;strokeColor=#36393d;fillColor=#00FF00;" parent="1" vertex="1">
          <mxGeometry x="1100" y="780" width="120" height="60" as="geometry" />
        </mxCell>
        <mxCell id="SEL_zCSlyH6_-JWHvYZ7-27" value="" style="group" parent="1" vertex="1" connectable="0">
          <mxGeometry x="1640" y="630" width="180" height="270" as="geometry" />
        </mxCell>
        <mxCell id="SEL_zCSlyH6_-JWHvYZ7-12" value="Legend" style="rounded=0;whiteSpace=wrap;html=1;dashed=1;strokeWidth=2;gradientColor=none;verticalAlign=top;fontStyle=1;dashPattern=1 4;fillColor=#E6E6E6;" parent="SEL_zCSlyH6_-JWHvYZ7-27" vertex="1">
          <mxGeometry x="-20" y="-20" width="200" height="290" as="geometry" />
        </mxCell>
        <mxCell id="SEL_zCSlyH6_-JWHvYZ7-10" value="" style="rounded=1;whiteSpace=wrap;html=1;fillColor=#e1d5e7;strokeColor=#9673a6;" parent="SEL_zCSlyH6_-JWHvYZ7-27" vertex="1">
          <mxGeometry x="130" y="90" width="30" height="20" as="geometry" />
        </mxCell>
        <mxCell id="SEL_zCSlyH6_-JWHvYZ7-11" value="api" style="rounded=1;whiteSpace=wrap;html=1;fillColor=#f5f5f5;strokeColor=#666666;fontColor=#333333;gradientColor=none;dashed=1;strokeWidth=2;" parent="SEL_zCSlyH6_-JWHvYZ7-27" vertex="1">
          <mxGeometry x="130" width="30" height="20" as="geometry" />
        </mxCell>
        <mxCell id="SEL_zCSlyH6_-JWHvYZ7-15" value="Not yet implemented" style="text;html=1;strokeColor=none;fillColor=none;align=left;verticalAlign=middle;whiteSpace=wrap;rounded=0;dashed=1;" parent="SEL_zCSlyH6_-JWHvYZ7-27" vertex="1">
          <mxGeometry y="90" width="120" height="20" as="geometry" />
        </mxCell>
        <mxCell id="SEL_zCSlyH6_-JWHvYZ7-16" value="API module" style="text;html=1;strokeColor=none;fillColor=none;align=left;verticalAlign=middle;whiteSpace=wrap;rounded=0;dashed=1;" parent="SEL_zCSlyH6_-JWHvYZ7-27" vertex="1">
          <mxGeometry width="120" height="20" as="geometry" />
        </mxCell>
        <mxCell id="SEL_zCSlyH6_-JWHvYZ7-22" value="" style="rounded=1;whiteSpace=wrap;html=1;fillColor=#00FF00;strokeColor=#666666;fontColor=#333333;gradientColor=none;strokeWidth=2;" parent="SEL_zCSlyH6_-JWHvYZ7-27" vertex="1">
          <mxGeometry x="130" y="60" width="30" height="20" as="geometry" />
        </mxCell>
        <mxCell id="SEL_zCSlyH6_-JWHvYZ7-23" value="Test only module" style="text;html=1;strokeColor=none;fillColor=none;align=left;verticalAlign=middle;whiteSpace=wrap;rounded=0;dashed=1;" parent="SEL_zCSlyH6_-JWHvYZ7-27" vertex="1">
          <mxGeometry y="60" width="120" height="20" as="geometry" />
        </mxCell>
        <mxCell id="SEL_zCSlyH6_-JWHvYZ7-25" value="" style="rounded=1;whiteSpace=wrap;html=1;fillColor=#f5f5f5;strokeColor=#666666;fontColor=#333333;" parent="SEL_zCSlyH6_-JWHvYZ7-27" vertex="1">
          <mxGeometry x="130" y="30" width="30" height="20" as="geometry" />
        </mxCell>
        <mxCell id="SEL_zCSlyH6_-JWHvYZ7-26" value="Code module" style="text;html=1;strokeColor=none;fillColor=none;align=left;verticalAlign=middle;whiteSpace=wrap;rounded=0;dashed=1;" parent="SEL_zCSlyH6_-JWHvYZ7-27" vertex="1">
          <mxGeometry y="30" width="120" height="20" as="geometry" />
        </mxCell>
        <mxCell id="SEL_zCSlyH6_-JWHvYZ7-28" value="" style="group" parent="1" vertex="1" connectable="0">
          <mxGeometry x="1635" y="830" width="170" height="60" as="geometry" />
        </mxCell>
        <mxCell id="SEL_zCSlyH6_-JWHvYZ7-14" value="Uses dependency" style="text;html=1;strokeColor=none;fillColor=none;align=left;verticalAlign=middle;whiteSpace=wrap;rounded=0;dashed=1;" parent="SEL_zCSlyH6_-JWHvYZ7-28" vertex="1">
          <mxGeometry y="20" width="115" height="20" as="geometry" />
        </mxCell>
        <mxCell id="SEL_zCSlyH6_-JWHvYZ7-17" style="edgeStyle=orthogonalEdgeStyle;rounded=0;orthogonalLoop=1;jettySize=auto;html=1;endArrow=block;endFill=0;exitX=1;exitY=0.5;exitDx=0;exitDy=0;" parent="SEL_zCSlyH6_-JWHvYZ7-28" source="SEL_zCSlyH6_-JWHvYZ7-18" edge="1">
          <mxGeometry relative="1" as="geometry">
            <mxPoint x="170" y="10" as="targetPoint" />
            <Array as="points" />
            <mxPoint x="130" y="10" as="sourcePoint" />
          </mxGeometry>
        </mxCell>
        <mxCell id="SEL_zCSlyH6_-JWHvYZ7-18" value="Implements dependency" style="text;html=1;strokeColor=none;fillColor=none;align=left;verticalAlign=middle;whiteSpace=wrap;rounded=0;dashed=1;" parent="SEL_zCSlyH6_-JWHvYZ7-28" vertex="1">
          <mxGeometry width="135" height="20" as="geometry" />
        </mxCell>
        <mxCell id="SEL_zCSlyH6_-JWHvYZ7-19" style="edgeStyle=orthogonalEdgeStyle;rounded=0;orthogonalLoop=1;jettySize=auto;html=1;endArrow=classicThin;endFill=1;" parent="SEL_zCSlyH6_-JWHvYZ7-28" edge="1">
          <mxGeometry relative="1" as="geometry">
            <mxPoint x="170" y="29.5" as="targetPoint" />
            <Array as="points">
              <mxPoint x="130" y="29.5" />
            </Array>
            <mxPoint x="130" y="29.5" as="sourcePoint" />
          </mxGeometry>
        </mxCell>
        <mxCell id="SEL_zCSlyH6_-JWHvYZ7-20" style="edgeStyle=orthogonalEdgeStyle;rounded=0;orthogonalLoop=1;jettySize=auto;html=1;strokeWidth=3;fontColor=#00CC00;strokeColor=#00CC00;" parent="SEL_zCSlyH6_-JWHvYZ7-28" edge="1">
          <mxGeometry relative="1" as="geometry">
            <mxPoint x="130" y="50" as="sourcePoint" />
            <mxPoint x="165" y="50" as="targetPoint" />
            <Array as="points">
              <mxPoint x="130" y="50" />
              <mxPoint x="130" y="50" />
            </Array>
          </mxGeometry>
        </mxCell>
        <mxCell id="SEL_zCSlyH6_-JWHvYZ7-21" value="Test dependency" style="text;html=1;strokeColor=none;fillColor=none;align=left;verticalAlign=middle;whiteSpace=wrap;rounded=0;dashed=1;" parent="SEL_zCSlyH6_-JWHvYZ7-28" vertex="1">
          <mxGeometry y="40" width="110" height="20" as="geometry" />
        </mxCell>
        <mxCell id="Rr0Jbu87Zmp-oVtDLC-t-10" style="edgeStyle=orthogonalEdgeStyle;rounded=0;orthogonalLoop=1;jettySize=auto;html=1;entryX=0.5;entryY=1;entryDx=0;entryDy=0;startArrow=none;startFill=0;endArrow=block;endFill=0;exitX=1;exitY=0.5;exitDx=0;exitDy=0;" parent="1" source="dkDEsUe8K2UwR5xSYzfA-9" target="dkDEsUe8K2UwR5xSYzfA-13" edge="1">
          <mxGeometry relative="1" as="geometry">
            <Array as="points">
              <mxPoint x="1330" y="810" />
            </Array>
            <mxPoint x="1330.04" y="780" as="sourcePoint" />
          </mxGeometry>
        </mxCell>
        <mxCell id="iJzhYiwfXacxIfyC6viO-4" style="edgeStyle=orthogonalEdgeStyle;rounded=0;orthogonalLoop=1;jettySize=auto;html=1;entryX=0;entryY=0.5;entryDx=0;entryDy=0;endArrow=none;endFill=0;dashed=1;curved=1;" parent="1" source="iJzhYiwfXacxIfyC6viO-2" target="dkDEsUe8K2UwR5xSYzfA-15" edge="1">
          <mxGeometry relative="1" as="geometry" />
        </mxCell>
        <mxCell id="iJzhYiwfXacxIfyC6viO-2" value="We probably won&#39;t need these modules" style="shape=callout;whiteSpace=wrap;html=1;perimeter=calloutPerimeter;fillColor=#ffff88;strokeColor=#36393d;align=left;" parent="1" vertex="1">
          <mxGeometry x="811" y="400" width="120" height="80" as="geometry" />
        </mxCell>
        <mxCell id="iJzhYiwfXacxIfyC6viO-3" style="edgeStyle=orthogonalEdgeStyle;rounded=0;orthogonalLoop=1;jettySize=auto;html=1;entryX=0;entryY=0;entryDx=0;entryDy=0;dashed=1;endArrow=none;endFill=0;curved=1;" parent="1" source="iJzhYiwfXacxIfyC6viO-2" target="dkDEsUe8K2UwR5xSYzfA-12" edge="1">
          <mxGeometry relative="1" as="geometry" />
        </mxCell>
        <mxCell id="iJzhYiwfXacxIfyC6viO-6" style="edgeStyle=orthogonalEdgeStyle;rounded=0;orthogonalLoop=1;jettySize=auto;html=1;" parent="1" source="iJzhYiwfXacxIfyC6viO-5" target="dkDEsUe8K2UwR5xSYzfA-9" edge="1">
          <mxGeometry relative="1" as="geometry">
            <Array as="points">
              <mxPoint x="1100" y="870" />
              <mxPoint x="1160" y="870" />
            </Array>
          </mxGeometry>
        </mxCell>
        <mxCell id="iJzhYiwfXacxIfyC6viO-5" value="data.json" style="shape=note;whiteSpace=wrap;html=1;backgroundOutline=1;darkOpacity=0.05;" parent="1" vertex="1">
          <mxGeometry x="1060" y="950" width="80" height="100" as="geometry" />
        </mxCell>
        <mxCell id="iJzhYiwfXacxIfyC6viO-7" value="For now shipped with the application and loaded in mem on startup" style="shape=callout;whiteSpace=wrap;html=1;perimeter=calloutPerimeter;fillColor=#ffff88;strokeColor=#36393d;align=left;size=19;position=0.55;" parent="1" vertex="1">
          <mxGeometry x="1130" y="940" width="125.5" height="80" as="geometry" />
        </mxCell>
        <mxCell id="1gCc8UXQbu_2HdWJga4U-3" value="" style="group;align=left;verticalAlign=top;" vertex="1" connectable="0" parent="1">
          <mxGeometry x="2601.5" y="250" width="800" height="420" as="geometry" />
        </mxCell>
        <mxCell id="1gCc8UXQbu_2HdWJga4U-4" value="Frontend adapters" style="rounded=0;whiteSpace=wrap;html=1;fontStyle=1;verticalAlign=top;fillColor=#e1d5e7;strokeColor=#9673a6;align=left;" vertex="1" parent="1gCc8UXQbu_2HdWJga4U-3">
          <mxGeometry width="719" height="420" as="geometry" />
        </mxCell>
        <mxCell id="1gCc8UXQbu_2HdWJga4U-32" value="rest-adapter" style="rounded=1;whiteSpace=wrap;html=1;fillColor=#f5f5f5;strokeColor=#666666;fontColor=#333333;" vertex="1" parent="1gCc8UXQbu_2HdWJga4U-3">
          <mxGeometry x="28" y="45" width="642" height="330" as="geometry" />
        </mxCell>
        <mxCell id="1gCc8UXQbu_2HdWJga4U-29" value="be.tr.democracy.rest" style="shape=process;whiteSpace=wrap;html=1;backgroundOutline=1;fillColor=#ffcc99;strokeColor=#36393d;" vertex="1" parent="1gCc8UXQbu_2HdWJga4U-3">
          <mxGeometry x="220" y="140" width="290" height="45" as="geometry" />
        </mxCell>
        <mxCell id="1gCc8UXQbu_2HdWJga4U-31" value="MotionController" style="html=1;whiteSpace=wrap;fillColor=#1ba1e2;fontColor=#ffffff;strokeColor=#006EAF;" vertex="1" parent="1gCc8UXQbu_2HdWJga4U-3">
          <mxGeometry x="304.5" y="255" width="110" height="75" as="geometry" />
        </mxCell>
        <mxCell id="1gCc8UXQbu_2HdWJga4U-39" value="View Model, exposed to the UI. Should not contain vocabulary concepts" style="shape=callout;whiteSpace=wrap;html=1;perimeter=calloutPerimeter;fillColor=#ffff88;strokeColor=#36393d;align=left;" vertex="1" parent="1gCc8UXQbu_2HdWJga4U-3">
          <mxGeometry x="610" y="140" width="220" height="115" as="geometry" />
        </mxCell>
        <mxCell id="1gCc8UXQbu_2HdWJga4U-10" style="edgeStyle=orthogonalEdgeStyle;rounded=0;orthogonalLoop=1;jettySize=auto;html=1;" edge="1" parent="1" source="1gCc8UXQbu_2HdWJga4U-6" target="1gCc8UXQbu_2HdWJga4U-11">
          <mxGeometry relative="1" as="geometry" />
        </mxCell>
        <mxCell id="1gCc8UXQbu_2HdWJga4U-6" value="data.json" style="shape=note;whiteSpace=wrap;html=1;backgroundOutline=1;darkOpacity=0.05;fillColor=#e3c800;fontColor=#000000;strokeColor=#B09500;" vertex="1" parent="1">
          <mxGeometry x="2915.5" y="1510" width="80" height="100" as="geometry" />
        </mxCell>
        <mxCell id="1gCc8UXQbu_2HdWJga4U-7" value="" style="group;align=center;verticalAlign=middle;fillColor=#d5e8d4;strokeColor=#82b366;" vertex="1" connectable="0" parent="1">
          <mxGeometry x="2510" y="10" width="970" height="140" as="geometry" />
        </mxCell>
        <mxCell id="1gCc8UXQbu_2HdWJga4U-8" value="Frontend" style="rounded=0;whiteSpace=wrap;html=1;fontStyle=1;verticalAlign=top;fillColor=#d5e8d4;strokeColor=#82b366;align=center;" vertex="1" parent="1gCc8UXQbu_2HdWJga4U-7">
          <mxGeometry width="970" height="140" as="geometry" />
        </mxCell>
        <mxCell id="1gCc8UXQbu_2HdWJga4U-42" value="web-app" style="shape=process;whiteSpace=wrap;html=1;backgroundOutline=1;fillColor=#ffcc99;strokeColor=#36393d;" vertex="1" parent="1gCc8UXQbu_2HdWJga4U-7">
          <mxGeometry x="295.452016689847" y="50" width="391.23783031988876" height="45" as="geometry" />
        </mxCell>
        <mxCell id="1gCc8UXQbu_2HdWJga4U-11" value="MotionDTO" style="shape=note;whiteSpace=wrap;html=1;backgroundOutline=1;darkOpacity=0.05;fillColor=#dae8fc;strokeColor=#6c8ebf;" vertex="1" parent="1">
          <mxGeometry x="2786" y="1260" width="80" height="100" as="geometry" />
        </mxCell>
        <mxCell id="1gCc8UXQbu_2HdWJga4U-13" value="ProposalDTO" style="shape=note;whiteSpace=wrap;html=1;backgroundOutline=1;darkOpacity=0.05;fillColor=#dae8fc;strokeColor=#6c8ebf;" vertex="1" parent="1">
          <mxGeometry x="3006" y="1260" width="80" height="100" as="geometry" />
        </mxCell>
        <mxCell id="1gCc8UXQbu_2HdWJga4U-18" value="DataFile&lt;div&gt;Motions&lt;div&gt;ReadModel&lt;/div&gt;&lt;/div&gt;" style="html=1;whiteSpace=wrap;fillColor=#1ba1e2;fontColor=#ffffff;strokeColor=#006EAF;" vertex="1" parent="1">
          <mxGeometry x="2900.5" y="1150" width="110" height="50" as="geometry" />
        </mxCell>
        <mxCell id="1gCc8UXQbu_2HdWJga4U-19" style="edgeStyle=orthogonalEdgeStyle;rounded=0;orthogonalLoop=1;jettySize=auto;html=1;entryX=1;entryY=0.5;entryDx=0;entryDy=0;" edge="1" parent="1" source="1gCc8UXQbu_2HdWJga4U-13" target="1gCc8UXQbu_2HdWJga4U-18">
          <mxGeometry relative="1" as="geometry" />
        </mxCell>
        <mxCell id="1gCc8UXQbu_2HdWJga4U-20" style="edgeStyle=orthogonalEdgeStyle;rounded=0;orthogonalLoop=1;jettySize=auto;html=1;entryX=0;entryY=0.5;entryDx=0;entryDy=0;exitX=0;exitY=0;exitDx=25;exitDy=0;exitPerimeter=0;" edge="1" parent="1" source="1gCc8UXQbu_2HdWJga4U-11" target="1gCc8UXQbu_2HdWJga4U-18">
          <mxGeometry relative="1" as="geometry" />
        </mxCell>
        <mxCell id="1gCc8UXQbu_2HdWJga4U-35" style="edgeStyle=orthogonalEdgeStyle;rounded=0;orthogonalLoop=1;jettySize=auto;html=1;entryX=0.5;entryY=1;entryDx=0;entryDy=0;" edge="1" parent="1" source="1gCc8UXQbu_2HdWJga4U-23" target="1gCc8UXQbu_2HdWJga4U-31">
          <mxGeometry relative="1" as="geometry">
            <Array as="points">
              <mxPoint x="2806" y="710" />
              <mxPoint x="2955" y="710" />
            </Array>
          </mxGeometry>
        </mxCell>
        <mxCell id="1gCc8UXQbu_2HdWJga4U-23" value="Motion" style="shape=note;whiteSpace=wrap;html=1;backgroundOutline=1;darkOpacity=0.05;fillColor=#cdeb8b;strokeColor=#36393d;" vertex="1" parent="1">
          <mxGeometry x="2766" y="800" width="80" height="100" as="geometry" />
        </mxCell>
        <mxCell id="1gCc8UXQbu_2HdWJga4U-36" style="edgeStyle=orthogonalEdgeStyle;rounded=0;orthogonalLoop=1;jettySize=auto;html=1;" edge="1" parent="1" source="1gCc8UXQbu_2HdWJga4U-24" target="1gCc8UXQbu_2HdWJga4U-31">
          <mxGeometry relative="1" as="geometry">
            <Array as="points">
              <mxPoint x="3166" y="710" />
              <mxPoint x="2956" y="710" />
            </Array>
          </mxGeometry>
        </mxCell>
        <mxCell id="1gCc8UXQbu_2HdWJga4U-24" value="VoteCount" style="shape=note;whiteSpace=wrap;html=1;backgroundOutline=1;darkOpacity=0.05;fillColor=#cdeb8b;strokeColor=#36393d;" vertex="1" parent="1">
          <mxGeometry x="3136" y="800" width="80" height="100" as="geometry" />
        </mxCell>
        <mxCell id="1gCc8UXQbu_2HdWJga4U-25" style="edgeStyle=orthogonalEdgeStyle;rounded=0;orthogonalLoop=1;jettySize=auto;html=1;entryX=0.5;entryY=1;entryDx=0;entryDy=0;entryPerimeter=0;" edge="1" parent="1" source="1gCc8UXQbu_2HdWJga4U-18" target="1gCc8UXQbu_2HdWJga4U-23">
          <mxGeometry relative="1" as="geometry">
            <Array as="points">
              <mxPoint x="2956" y="990" />
              <mxPoint x="2806" y="990" />
            </Array>
          </mxGeometry>
        </mxCell>
        <mxCell id="1gCc8UXQbu_2HdWJga4U-26" style="edgeStyle=orthogonalEdgeStyle;rounded=0;orthogonalLoop=1;jettySize=auto;html=1;entryX=0.5;entryY=1;entryDx=0;entryDy=0;entryPerimeter=0;" edge="1" parent="1" target="1gCc8UXQbu_2HdWJga4U-24">
          <mxGeometry relative="1" as="geometry">
            <mxPoint x="2956" y="1170" as="sourcePoint" />
            <mxPoint x="2871" y="825" as="targetPoint" />
            <Array as="points">
              <mxPoint x="2956" y="990" />
              <mxPoint x="3176" y="990" />
            </Array>
          </mxGeometry>
        </mxCell>
        <mxCell id="1gCc8UXQbu_2HdWJga4U-27" value="The data model, one to one mapped from the json" style="shape=callout;whiteSpace=wrap;html=1;perimeter=calloutPerimeter;fillColor=#ffff88;strokeColor=#36393d;align=left;size=19;position=0.55;" vertex="1" parent="1">
          <mxGeometry x="3206" y="1165" width="150" height="90" as="geometry" />
        </mxCell>
        <mxCell id="1gCc8UXQbu_2HdWJga4U-22" value="be.tr.democracy.inmem" style="shape=process;whiteSpace=wrap;html=1;backgroundOutline=1;fillColor=#ffcc99;strokeColor=#36393d;" vertex="1" parent="1">
          <mxGeometry x="2820.5" y="1090" width="290" height="50" as="geometry" />
        </mxCell>
        <mxCell id="1gCc8UXQbu_2HdWJga4U-28" style="edgeStyle=orthogonalEdgeStyle;rounded=0;orthogonalLoop=1;jettySize=auto;html=1;entryX=0.5;entryY=1;entryDx=0;entryDy=0;entryPerimeter=0;" edge="1" parent="1" source="1gCc8UXQbu_2HdWJga4U-6" target="1gCc8UXQbu_2HdWJga4U-13">
          <mxGeometry relative="1" as="geometry" />
        </mxCell>
        <mxCell id="1gCc8UXQbu_2HdWJga4U-30" value="Vocabulary concepts, used by everyone. Contains immutable core concepts that can be used by everyone but should not exposed to outside world or contain business logic" style="shape=callout;whiteSpace=wrap;html=1;perimeter=calloutPerimeter;fillColor=#ffff88;strokeColor=#36393d;align=left;" vertex="1" parent="1">
          <mxGeometry x="3186" y="720" width="220" height="115" as="geometry" />
        </mxCell>
        <mxCell id="1gCc8UXQbu_2HdWJga4U-12" value="be.tr.democracy.vocabulary" style="shape=process;whiteSpace=wrap;html=1;backgroundOutline=1;fillColor=#ffcc99;strokeColor=#36393d;" vertex="1" parent="1">
          <mxGeometry x="2836" y="740" width="290" height="50" as="geometry" />
        </mxCell>
        <mxCell id="1gCc8UXQbu_2HdWJga4U-41" value="" style="ellipse;shape=cloud;whiteSpace=wrap;html=1;fillColor=#fff2cc;strokeColor=#d6b656;" vertex="1" parent="1">
          <mxGeometry x="2616" y="160" width="660" height="80" as="geometry" />
        </mxCell>
        <mxCell id="1gCc8UXQbu_2HdWJga4U-44" style="edgeStyle=orthogonalEdgeStyle;rounded=0;orthogonalLoop=1;jettySize=auto;html=1;" edge="1" parent="1" source="1gCc8UXQbu_2HdWJga4U-42" target="1gCc8UXQbu_2HdWJga4U-37">
          <mxGeometry relative="1" as="geometry" />
        </mxCell>
        <mxCell id="1gCc8UXQbu_2HdWJga4U-37" value="Motion&lt;br&gt;&lt;div&gt;&lt;span style=&quot;color: rgba(0, 0, 0, 0); font-family: monospace; font-size: 0px; text-align: start; text-wrap: nowrap; background-color: initial;&quot;&gt;%3CmxGraphModel%3E%3Croot%3E%3CmxCell%20id%3D%220%22%2F%3E%3CmxCell%20id%3D%221%22%20parent%3D%220%22%2F%3E%3CmxCell%20id%3D%222%22%20value%3D%22Motion%22%20style%3D%22shape%3Dnote%3BwhiteSpace%3Dwrap%3Bhtml%3D1%3BbackgroundOutline%3D1%3BdarkOpacity%3D0.05%3BfillColor%3D%23cdeb8b%3BstrokeColor%3D%2336393d%3B%22%20vertex%3D%221%22%20parent%3D%221%22%3E%3CmxGeometry%20x%3D%222270%22%20y%3D%22540%22%20width%3D%2280%22%20height%3D%22100%22%20as%3D%22geometry%22%2F%3E%3C%2FmxCell%3E%3C%2Froot%3E%3C%2FmxGraphModel%3E&lt;/span&gt;ViewDTO&lt;/div&gt;" style="shape=note;whiteSpace=wrap;html=1;backgroundOutline=1;darkOpacity=0.05;fillColor=#ffcccc;strokeColor=#36393d;" vertex="1" parent="1">
          <mxGeometry x="2925.5" y="180" width="80" height="100" as="geometry" />
        </mxCell>
        <mxCell id="1gCc8UXQbu_2HdWJga4U-40" style="edgeStyle=orthogonalEdgeStyle;rounded=0;orthogonalLoop=1;jettySize=auto;html=1;entryX=0.5;entryY=1;entryDx=0;entryDy=0;entryPerimeter=0;" edge="1" parent="1" source="1gCc8UXQbu_2HdWJga4U-31" target="1gCc8UXQbu_2HdWJga4U-37">
          <mxGeometry relative="1" as="geometry" />
        </mxCell>
        <mxCell id="1gCc8UXQbu_2HdWJga4U-46" value="Data model" style="shape=card;whiteSpace=wrap;html=1;fillColor=#f8cecc;strokeColor=#b85450;fontStyle=1;fontSize=14;" vertex="1" parent="1">
          <mxGeometry x="3460" y="1150" width="80" height="100" as="geometry" />
        </mxCell>
        <mxCell id="1gCc8UXQbu_2HdWJga4U-47" value="Domain model" style="shape=card;whiteSpace=wrap;html=1;fillColor=#fff2cc;strokeColor=#d6b656;fontStyle=1;fontSize=14;" vertex="1" parent="1">
          <mxGeometry x="3450" y="770" width="80" height="100" as="geometry" />
        </mxCell>
        <mxCell id="1gCc8UXQbu_2HdWJga4U-48" value="View&lt;div&gt;model&lt;/div&gt;" style="shape=card;whiteSpace=wrap;html=1;fillColor=#e1d5e7;strokeColor=#9673a6;fontStyle=1;fontSize=14;" vertex="1" parent="1">
          <mxGeometry x="3460" y="235" width="80" height="100" as="geometry" />
        </mxCell>
      </root>
    </mxGraphModel>
  </diagram>
</mxfile>
